<svg width="139" height="62" viewBox="0 0 139 62" fill="none" xmlns="http://www.w3.org/2000/svg">
<path d="M4.17549 18.5287H10.6155V21.6367H0.255486V2.09272H4.17549V18.5287ZM27.5271 13.5447C27.5271 14.1047 27.4897 14.6087 27.4151 15.0567H16.075C16.1684 16.1767 16.5604 17.0541 17.251 17.6887C17.9417 18.3234 18.791 18.6407 19.799 18.6407C21.255 18.6407 22.291 18.0154 22.907 16.7647H27.1351C26.687 18.2581 25.8284 19.4901 24.559 20.4607C23.2897 21.4127 21.731 21.8887 19.883 21.8887C18.3897 21.8887 17.0457 21.5621 15.851 20.9087C14.675 20.2367 13.751 19.2941 13.079 18.0807C12.4257 16.8674 12.099 15.4674 12.099 13.8807C12.099 12.2754 12.4257 10.8661 13.079 9.65272C13.7324 8.43938 14.647 7.50605 15.823 6.85272C16.999 6.19939 18.3524 5.87272 19.883 5.87272C21.3577 5.87272 22.6737 6.19005 23.831 6.82472C25.007 7.45938 25.9124 8.36472 26.547 9.54072C27.2004 10.6981 27.5271 12.0327 27.5271 13.5447ZM23.467 12.4247C23.4484 11.4167 23.0844 10.6141 22.375 10.0167C21.6657 9.40072 20.7977 9.09272 19.771 9.09272C18.8004 9.09272 17.979 9.39139 17.307 9.98872C16.6537 10.5674 16.2524 11.3794 16.103 12.4247H23.467ZM34.9523 9.34472V16.8487C34.9523 17.3714 35.0736 17.7541 35.3163 17.9967C35.5776 18.2207 36.007 18.3327 36.6043 18.3327H38.4243V21.6367H35.9603C32.6563 21.6367 31.0043 20.0314 31.0043 16.8207V9.34472H29.1563V6.12472H31.0043V2.28872H34.9523V6.12472H38.4243V9.34472H34.9523ZM42.0278 2.09272H46.1438L43.1198 9.14872H40.4318L42.0278 2.09272ZM54.8907 21.8887C53.6214 21.8887 52.4827 21.6647 51.4747 21.2167C50.4667 20.7501 49.664 20.1247 49.0667 19.3407C48.488 18.5567 48.1707 17.6887 48.1147 16.7367H52.0627C52.1374 17.3341 52.4267 17.8287 52.9307 18.2207C53.4534 18.6127 54.0974 18.8087 54.8627 18.8087C55.6094 18.8087 56.188 18.6594 56.5987 18.3607C57.028 18.0621 57.2427 17.6794 57.2427 17.2127C57.2427 16.7087 56.9814 16.3354 56.4587 16.0927C55.9547 15.8314 55.1427 15.5514 54.0227 15.2527C52.8654 14.9727 51.9134 14.6834 51.1667 14.3847C50.4387 14.0861 49.804 13.6287 49.2627 13.0127C48.74 12.3967 48.4787 11.5661 48.4787 10.5207C48.4787 9.66205 48.7214 8.87805 49.2067 8.16872C49.7107 7.45938 50.42 6.89938 51.3347 6.48872C52.268 6.07805 53.36 5.87272 54.6107 5.87272C56.4587 5.87272 57.9334 6.33938 59.0347 7.27272C60.136 8.18739 60.7427 9.42872 60.8547 10.9967H57.1027C57.0467 10.3807 56.7854 9.89538 56.3187 9.54072C55.8707 9.16738 55.264 8.98072 54.4987 8.98072C53.7894 8.98072 53.2387 9.11138 52.8467 9.37272C52.4734 9.63405 52.2867 9.99805 52.2867 10.4647C52.2867 10.9874 52.548 11.3887 53.0707 11.6687C53.5934 11.9301 54.4054 12.2007 55.5067 12.4807C56.6267 12.7607 57.5507 13.0501 58.2787 13.3487C59.0067 13.6474 59.632 14.1141 60.1547 14.7487C60.696 15.3647 60.976 16.1861 60.9947 17.2127C60.9947 18.1087 60.7427 18.9114 60.2387 19.6207C59.7534 20.3301 59.044 20.8901 58.1107 21.3007C57.196 21.6927 56.1227 21.8887 54.8907 21.8887ZM22.399 42.0927L15.791 54.8327V61.6367H11.871V54.8327L5.235 42.0927H9.659L13.859 51.0247L18.031 42.0927H22.399ZM31.5478 61.8887C30.0545 61.8887 28.7105 61.5621 27.5158 60.9087C26.3211 60.2367 25.3785 59.2941 24.6878 58.0807C24.0158 56.8674 23.6798 55.4674 23.6798 53.8807C23.6798 52.2941 24.0251 50.8941 24.7158 49.6807C25.4251 48.4674 26.3865 47.5341 27.5998 46.8807C28.8131 46.2087 30.1665 45.8727 31.6598 45.8727C33.1531 45.8727 34.5065 46.2087 35.7198 46.8807C36.9331 47.5341 37.8851 48.4674 38.5758 49.6807C39.2851 50.8941 39.6398 52.2941 39.6398 53.8807C39.6398 55.4674 39.2758 56.8674 38.5478 58.0807C37.8385 59.2941 36.8678 60.2367 35.6358 60.9087C34.4225 61.5621 33.0598 61.8887 31.5478 61.8887ZM31.5478 58.4727C32.2571 58.4727 32.9198 58.3047 33.5358 57.9687C34.1705 57.6141 34.6745 57.0914 35.0478 56.4007C35.4211 55.7101 35.6078 54.8701 35.6078 53.8807C35.6078 52.4061 35.2158 51.2767 34.4318 50.4927C33.6665 49.6901 32.7238 49.2887 31.6038 49.2887C30.4838 49.2887 29.5411 49.6901 28.7758 50.4927C28.0291 51.2767 27.6558 52.4061 27.6558 53.8807C27.6558 55.3554 28.0198 56.4941 28.7478 57.2967C29.4945 58.0807 30.4278 58.4727 31.5478 58.4727ZM57.1593 46.1247V61.6367H53.2113V59.6767C52.7073 60.3487 52.0446 60.8807 51.2233 61.2727C50.4206 61.6461 49.5433 61.8327 48.5913 61.8327C47.3779 61.8327 46.3046 61.5807 45.3713 61.0767C44.4379 60.5541 43.7006 59.7981 43.1593 58.8087C42.6366 57.8007 42.3753 56.6061 42.3753 55.2247V46.1247H46.2953V54.6647C46.2953 55.8967 46.6033 56.8487 47.2193 57.5207C47.8353 58.1741 48.6753 58.5007 49.7393 58.5007C50.8219 58.5007 51.6713 58.1741 52.2873 57.5207C52.9033 56.8487 53.2113 55.8967 53.2113 54.6647V46.1247H57.1593ZM64.947 48.5327C65.451 47.7114 66.1043 47.0674 66.907 46.6007C67.7283 46.1341 68.6616 45.9007 69.707 45.9007V50.0167H68.671C67.439 50.0167 66.5056 50.3061 65.871 50.8847C65.255 51.4634 64.947 52.4714 64.947 53.9087V61.6367H61.027V46.1247H64.947V48.5327ZM89.0992 61.6367L84.7872 54.0207H82.9392V61.6367H79.0192V42.0927H86.3552C87.8672 42.0927 89.1552 42.3634 90.2192 42.9047C91.2832 43.4274 92.0765 44.1461 92.5992 45.0607C93.1405 45.9567 93.4112 46.9647 93.4112 48.0847C93.4112 49.3727 93.0378 50.5394 92.2912 51.5847C91.5445 52.6114 90.4338 53.3207 88.9592 53.7127L93.6352 61.6367H89.0992ZM82.9392 51.0807H86.2152C87.2792 51.0807 88.0725 50.8287 88.5952 50.3247C89.1178 49.8021 89.3792 49.0834 89.3792 48.1687C89.3792 47.2727 89.1178 46.5821 88.5952 46.0967C88.0725 45.5927 87.2792 45.3407 86.2152 45.3407H82.9392V51.0807ZM100.877 42.0927V61.6367H96.9567V42.0927H100.877ZM103.742 53.8247C103.742 52.2567 104.05 50.8661 104.666 49.6527C105.3 48.4394 106.159 47.5061 107.242 46.8527C108.324 46.1994 109.528 45.8727 110.854 45.8727C111.862 45.8727 112.823 46.0967 113.738 46.5447C114.652 46.9741 115.38 47.5527 115.922 48.2807V40.9167H119.898V61.6367H115.922V59.3407C115.436 60.1061 114.755 60.7221 113.878 61.1887C113 61.6554 111.983 61.8887 110.826 61.8887C109.519 61.8887 108.324 61.5527 107.242 60.8807C106.159 60.2087 105.3 59.2661 104.666 58.0527C104.05 56.8207 103.742 55.4114 103.742 53.8247ZM115.95 53.8807C115.95 52.9287 115.763 52.1167 115.39 51.4447C115.016 50.7541 114.512 50.2314 113.878 49.8767C113.243 49.5034 112.562 49.3167 111.834 49.3167C111.106 49.3167 110.434 49.4941 109.818 49.8487C109.202 50.2034 108.698 50.7261 108.306 51.4167C107.932 52.0887 107.746 52.8914 107.746 53.8247C107.746 54.7581 107.932 55.5794 108.306 56.2887C108.698 56.9794 109.202 57.5114 109.818 57.8847C110.452 58.2581 111.124 58.4447 111.834 58.4447C112.562 58.4447 113.243 58.2674 113.878 57.9127C114.512 57.5394 115.016 57.0167 115.39 56.3447C115.763 55.6541 115.95 54.8327 115.95 53.8807ZM138.146 53.5447C138.146 54.1047 138.109 54.6087 138.034 55.0567H126.694C126.788 56.1767 127.18 57.0541 127.87 57.6887C128.561 58.3234 129.41 58.6407 130.418 58.6407C131.874 58.6407 132.91 58.0154 133.526 56.7647H137.754C137.306 58.2581 136.448 59.4901 135.178 60.4607C133.909 61.4127 132.35 61.8887 130.502 61.8887C129.009 61.8887 127.665 61.5621 126.47 60.9087C125.294 60.2367 124.37 59.2941 123.698 58.0807C123.045 56.8674 122.718 55.4674 122.718 53.8807C122.718 52.2754 123.045 50.8661 123.698 49.6527C124.352 48.4394 125.266 47.5061 126.442 46.8527C127.618 46.1994 128.972 45.8727 130.502 45.8727C131.977 45.8727 133.293 46.1901 134.45 46.8247C135.626 47.4594 136.532 48.3647 137.166 49.5407C137.82 50.6981 138.146 52.0327 138.146 53.5447ZM134.086 52.4247C134.068 51.4167 133.704 50.6141 132.994 50.0167C132.285 49.4007 131.417 49.0927 130.39 49.0927C129.42 49.0927 128.598 49.3914 127.926 49.9887C127.273 50.5674 126.872 51.3794 126.722 52.4247H134.086Z" fill="black"/>
<path d="M81.9724 11.6127C83.0737 11.8181 83.9791 12.3687 84.6884 13.2647C85.3977 14.1607 85.7524 15.1874 85.7524 16.3447C85.7524 17.3901 85.4911 18.3141 84.9684 19.1167C84.4644 19.9007 83.7271 20.5167 82.7564 20.9647C81.7857 21.4127 80.6377 21.6367 79.3124 21.6367H70.8844V2.09272H78.9484C80.2737 2.09272 81.4124 2.30739 82.3644 2.73672C83.3351 3.16605 84.0631 3.76339 84.5484 4.52872C85.0524 5.29405 85.3044 6.16205 85.3044 7.13272C85.3044 8.27139 84.9964 9.22339 84.3804 9.98872C83.7831 10.7541 82.9804 11.2954 81.9724 11.6127ZM74.8044 10.1567H78.3884C79.3217 10.1567 80.0404 9.95138 80.5444 9.54072C81.0484 9.11139 81.3004 8.50472 81.3004 7.72072C81.3004 6.93672 81.0484 6.33005 80.5444 5.90072C80.0404 5.47138 79.3217 5.25672 78.3884 5.25672H74.8044V10.1567ZM78.7524 18.4447C79.7044 18.4447 80.4417 18.2207 80.9644 17.7727C81.5057 17.3247 81.7764 16.6901 81.7764 15.8687C81.7764 15.0287 81.4964 14.3754 80.9364 13.9087C80.3764 13.4234 79.6204 13.1807 78.6684 13.1807H74.8044V18.4447H78.7524ZM95.7646 21.8887C94.2712 21.8887 92.9272 21.5621 91.7326 20.9087C90.5379 20.2367 89.5952 19.2941 88.9046 18.0807C88.2326 16.8674 87.8966 15.4674 87.8966 13.8807C87.8966 12.2941 88.2419 10.8941 88.9326 9.68072C89.6419 8.46739 90.6032 7.53405 91.8166 6.88072C93.0299 6.20872 94.3832 5.87272 95.8766 5.87272C97.3699 5.87272 98.7232 6.20872 99.9366 6.88072C101.15 7.53405 102.102 8.46739 102.793 9.68072C103.502 10.8941 103.857 12.2941 103.857 13.8807C103.857 15.4674 103.493 16.8674 102.765 18.0807C102.055 19.2941 101.085 20.2367 99.8526 20.9087C98.6392 21.5621 97.2766 21.8887 95.7646 21.8887ZM95.7646 18.4727C96.4739 18.4727 97.1366 18.3047 97.7526 17.9687C98.3872 17.6141 98.8912 17.0914 99.2646 16.4007C99.6379 15.7101 99.8246 14.8701 99.8246 13.8807C99.8246 12.4061 99.4326 11.2767 98.6486 10.4927C97.8832 9.69005 96.9406 9.28872 95.8206 9.28872C94.7006 9.28872 93.7579 9.69005 92.9926 10.4927C92.2459 11.2767 91.8726 12.4061 91.8726 13.8807C91.8726 15.3554 92.2366 16.4941 92.9646 17.2967C93.7112 18.0807 94.6446 18.4727 95.7646 18.4727ZM113.62 21.8887C112.127 21.8887 110.783 21.5621 109.588 20.9087C108.393 20.2367 107.451 19.2941 106.76 18.0807C106.088 16.8674 105.752 15.4674 105.752 13.8807C105.752 12.2941 106.097 10.8941 106.788 9.68072C107.497 8.46739 108.459 7.53405 109.672 6.88072C110.885 6.20872 112.239 5.87272 113.732 5.87272C115.225 5.87272 116.579 6.20872 117.792 6.88072C119.005 7.53405 119.957 8.46739 120.648 9.68072C121.357 10.8941 121.712 12.2941 121.712 13.8807C121.712 15.4674 121.348 16.8674 120.62 18.0807C119.911 19.2941 118.94 20.2367 117.708 20.9087C116.495 21.5621 115.132 21.8887 113.62 21.8887ZM113.62 18.4727C114.329 18.4727 114.992 18.3047 115.608 17.9687C116.243 17.6141 116.747 17.0914 117.12 16.4007C117.493 15.7101 117.68 14.8701 117.68 13.8807C117.68 12.4061 117.288 11.2767 116.504 10.4927C115.739 9.69005 114.796 9.28872 113.676 9.28872C112.556 9.28872 111.613 9.69005 110.848 10.4927C110.101 11.2767 109.728 12.4061 109.728 13.8807C109.728 15.3554 110.092 16.4941 110.82 17.2967C111.567 18.0807 112.5 18.4727 113.62 18.4727ZM133.772 21.6367L128.508 15.0287V21.6367H124.588V0.916718H128.508V12.7047L133.716 6.12472H138.812L131.98 13.9087L138.868 21.6367H133.772Z" fill="white"/>
</svg>
